<svg xmlns="http://www.w3.org/2000/svg" width="16" height="16" viewBox="0 0 16 16">
    <path fill="none" fill-rule="evenodd" stroke="#252C32" stroke-opacity=".4" d="M14 9.5h-3A1.5 1.5 0 0 0 9.5 11v3a1.5 1.5 0 0 0 1.5 1.5h3a1.5 1.5 0 0 0 1.5-1.5v-3A1.5 1.5 0 0 0 14 9.5zm-9 0H2A1.5 1.5 0 0 0 .5 11v3A1.5 1.5 0 0 0 2 15.5h3A1.5 1.5 0 0 0 6.5 14v-3A1.5 1.5 0 0 0 5 9.5zm0-9H2A1.5 1.5 0 0 0 .5 2v3A1.5 1.5 0 0 0 2 6.5h3A1.5 1.5 0 0 0 6.5 5V2A1.5 1.5 0 0 0 5 .5zm9 0h-3A1.5 1.5 0 0 0 9.5 2v3A1.5 1.5 0 0 0 11 6.5h3A1.5 1.5 0 0 0 15.5 5V2A1.5 1.5 0 0 0 14 .5z"/>
</svg>
