<svg xmlns="http://www.w3.org/2000/svg" width="48" height="48" viewBox="0 0 48 48">
    <path fill="#9F34D1" fill-rule="evenodd" d="M31.594 0a5.162 5.162 0 0 1 5.156 5.156v17.157h7.031A4.224 4.224 0 0 1 48 26.53v20.063C48 47.37 47.37 48 46.594 48H1.406C.63 48 0 47.37 0 46.594V26.53a4.224 4.224 0 0 1 4.219-4.218h7.031V5.155A5.162 5.162 0 0 1 16.406 0zm-5.719 39.188h-3.75a.47.47 0 0 0-.469.468v5.532h4.688v-5.532a.47.47 0 0 0-.469-.468zm5.719-36.376H16.406a2.346 2.346 0 0 0-2.343 2.344v40.032h4.78v-5.532a3.285 3.285 0 0 1 3.282-3.281h3.75a3.285 3.285 0 0 1 3.281 3.281v5.532h4.782V5.156a2.346 2.346 0 0 0-2.344-2.343zM11.25 25.125H4.219c-.776 0-1.407.63-1.407 1.406v18.657h8.438V25.125zm32.531 0H36.75v20.063h8.438V26.53c0-.775-.631-1.406-1.407-1.406zm-36.75 2.719c.777 0 1.407.63 1.407 1.406v6.188a1.406 1.406 0 0 1-2.813 0V29.25c0-.777.63-1.406 1.406-1.406zm33.938 0c.776 0 1.406.63 1.406 1.406v6.188a1.406 1.406 0 0 1-2.813 0V29.25c0-.777.63-1.406 1.407-1.406z" opacity=".75"/>
</svg>
