<svg xmlns="http://www.w3.org/2000/svg" width="17" height="16" viewBox="0 0 17 16">
    <path fill="#9F34D1" fill-rule="evenodd" d="M1.72 11.566c.948 0 1.722.765 1.722 1.708 0 .94-.771 1.708-1.721 1.708-.947 0-1.721-.768-1.721-1.708s.774-1.708 1.72-1.708zm0 .791a.92.92 0 0 0-.92.914.92.92 0 0 0 1.842 0 .918.918 0 0 0-.921-.914zm13.869.515a.4.4 0 0 1 .401.4.4.4 0 0 1-.401.398H5.744a.4.4 0 0 1-.402-.399.4.4 0 0 1 .402-.399zM1.72 6.287c.95 0 1.72.768 1.72 1.708s-.77 1.708-1.72 1.708C.774 9.703 0 8.938 0 7.995s.77-1.708 1.72-1.708zm0 .794a.918.918 0 0 0-.921.914.92.92 0 0 0 1.842 0 .918.918 0 0 0-.921-.914zm13.868.516a.4.4 0 0 1 .401.398.4.4 0 0 1-.401.399H5.744a.4.4 0 0 1-.402-.399.4.4 0 0 1 .402-.398zM1.72 1.008c.95 0 1.72.771 1.72 1.711A1.722 1.722 0 0 1 0 2.716c.001-.94.772-1.708 1.722-1.708zm0 .794a.92.92 0 0 0-.921.914.92.92 0 0 0 1.842 0 .918.918 0 0 0-.921-.914zm13.868.515a.4.4 0 0 1 .401.399.4.4 0 0 1-.401.399H5.744a.4.4 0 0 1-.402-.399.4.4 0 0 1 .402-.399z"/>
</svg>
