<svg xmlns="http://www.w3.org/2000/svg" width="48" height="48" viewBox="0 0 48 48">
    <path fill="#9F34D1" fill-rule="evenodd" d="M46.594 24.108h-9.952v-7.331c0-.512-.278-.983-.725-1.23l-10.51-5.824v-2.33h4.6c.776 0 1.406-.63 1.406-1.406V1.421c0-.777-.63-1.407-1.406-1.407H24c-.777 0-1.406.63-1.406 1.407v8.301l-10.51 5.824a1.406 1.406 0 0 0-.725 1.23v7.33H1.406c-.776 0-1.406.63-1.406 1.407v20.314c0 .777.63 1.407 1.406 1.407h45.188c.776 0 1.406-.63 1.406-1.407V25.514c0-.777-.63-1.406-1.406-1.406zM28.6 4.58h-3.195V2.828h3.195V4.58zM2.813 26.92h8.545v17.502H2.812V26.92zm11.358-1.406v-7.909L24 12.16l9.829 5.446v26.817h-2.715V36.7a7.072 7.072 0 0 0-7.065-7.064h-.099a7.072 7.072 0 0 0-7.064 7.064v7.722h-2.715V25.514zM19.699 36.7c0-1.87 1.214-3.46 2.895-4.029v11.751h-2.895V36.7zm5.707 7.722v-11.75a4.258 4.258 0 0 1 2.895 4.028v7.722h-2.895zm19.782 0h-8.546V26.92h8.545v17.502z" opacity=".754"/>
</svg>
