<svg xmlns="http://www.w3.org/2000/svg" width="32" height="32" viewBox="0 0 32 32">
    <path fill="#252C32" fill-rule="evenodd" d="M31.063 16.072h-6.635v-4.887a.938.938 0 0 0-.483-.82l-7.008-3.883V4.928h3.068c.517 0 .937-.42.937-.937V.948a.938.938 0 0 0-.937-.938H16a.938.938 0 0 0-.938.938V6.48l-7.006 3.883a.937.937 0 0 0-.484.82v4.888H.937a.938.938 0 0 0-.937.937v13.543c0 .518.42.938.938.938h30.125c.517 0 .937-.42.937-.938V17.01a.938.938 0 0 0-.938-.937zM19.066 3.054h-2.13V1.885h2.13v1.169zM1.875 17.947h5.697v11.668H1.875V17.947zm7.572-.938v-5.272L16 8.107l6.553 3.63v17.878h-1.81v-5.148a4.715 4.715 0 0 0-4.71-4.71h-.066a4.715 4.715 0 0 0-4.71 4.71v5.148h-1.81V17.009zm3.686 7.458c0-1.247.809-2.308 1.93-2.686v7.834h-1.93v-5.148zm3.805 5.148V21.78a2.839 2.839 0 0 1 1.93 2.686v5.148h-1.93zm13.187 0h-5.697V17.947h5.697v11.668z"/>
</svg>
